solid nodemcu_max6675
facet normal 0.9238795325112744 -0.3826834323651194 -0.0
  outer loop
    vertex 111.26794919243113 3.799999999999998 -3.0
    vertex 111.06814834742185 3.3176380902050404 -0.9999999999999981
    vertex 111.06814834742185 3.3176380902050404 -3.0
  endloop
endfacet
facet normal 0.9238795325112744 -0.3826834323651194 -0.0
  outer loop
    vertex 111.06814834742185 3.3176380902050404 -0.9999999999999981
    vertex 111.26794919243113 3.799999999999998 -3.0
    vertex 111.26794919243113 3.799999999999998 -0.9999999999999981
  endloop
endfacet
facet normal 0.9914448613738133 -0.13052619222003084 -0.0
  outer loop
    vertex 111.06814834742185 3.3176380902050404 -3.0
    vertex 111.0 2.8000000000000003 -0.9999999999999981
    vertex 111.0 2.8000000000000003 -3.0
  endloop
endfacet
facet normal 0.9914448613738133 -0.13052619222003084 -0.0
  outer loop
    vertex 111.0 2.8000000000000003 -0.9999999999999981
    vertex 111.06814834742185 3.3176380902050404 -3.0
    vertex 111.06814834742185 3.3176380902050404 -0.9999999999999981
  endloop
endfacet
facet normal 0.9914448613738132 0.13052619222003065 0.0
  outer loop
    vertex 111.0 2.8000000000000003 -3.0
    vertex 111.06814834742185 2.2823619097949592 -0.9999999999999981
    vertex 111.06814834742185 2.2823619097949592 -3.0
  endloop
endfacet
facet normal 0.9914448613738132 0.13052619222003065 0.0
  outer loop
    vertex 111.06814834742185 2.2823619097949592 -0.9999999999999981
    vertex 111.0 2.8000000000000003 -3.0
    vertex 111.0 2.8000000000000003 -0.9999999999999981
  endloop
endfacet
facet normal 0.9238795325112744 0.3826834323651194 0.0
  outer loop
    vertex 111.06814834742185 2.2823619097949592 -3.0
    vertex 111.26794919243113 1.8000000000000016 -0.9999999999999981
    vertex 111.26794919243113 1.8000000000000016 -3.0
  endloop
endfacet
facet normal 0.9238795325112744 0.3826834323651194 0.0
  outer loop
    vertex 111.26794919243113 1.8000000000000016 -0.9999999999999981
    vertex 111.06814834742185 2.2823619097949592 -3.0
    vertex 111.06814834742185 2.2823619097949592 -0.9999999999999981
  endloop
endfacet
facet normal 0.6087614290087153 -0.7933533402912394 -0.0
  outer loop
    vertex 112.0 4.532050807568874 -0.9999999999999981
    vertex 111.5857864376269 4.214213562373092 -3.0
    vertex 112.0 4.532050807568874 -3.0
  endloop
endfacet
facet normal 0.6087614290087153 -0.7933533402912394 -0.0
  outer loop
    vertex 111.5857864376269 4.214213562373092 -3.0
    vertex 112.0 4.532050807568874 -0.9999999999999981
    vertex 111.5857864376269 4.214213562373092 -0.9999999999999981
  endloop
endfacet
facet normal 0.7933533402912469 0.6087614290087052 0.0
  outer loop
    vertex 111.26794919243113 1.8000000000000016 -3.0
    vertex 111.5857864376269 1.385786437626908 -0.9999999999999981
    vertex 111.5857864376269 1.385786437626908 -3.0
  endloop
endfacet
facet normal 0.7933533402912469 0.6087614290087052 0.0
  outer loop
    vertex 111.5857864376269 1.385786437626908 -0.9999999999999981
    vertex 111.26794919243113 1.8000000000000016 -3.0
    vertex 111.26794919243113 1.8000000000000016 -0.9999999999999981
  endloop
endfacet
facet normal 0.7933533402912472 -0.6087614290087049 -0.0
  outer loop
    vertex 111.5857864376269 4.214213562373092 -3.0
    vertex 111.26794919243113 3.799999999999998 -0.9999999999999981
    vertex 111.26794919243113 3.799999999999998 -3.0
  endloop
endfacet
facet normal 0.7933533402912472 -0.6087614290087049 -0.0
  outer loop
    vertex 111.26794919243113 3.799999999999998 -0.9999999999999981
    vertex 111.5857864376269 4.214213562373092 -3.0
    vertex 111.5857864376269 4.214213562373092 -0.9999999999999981
  endloop
endfacet
facet normal 0.3826834323650934 0.9238795325112852 0.0
  outer loop
    vertex 112.0 1.0679491924311264 -0.9999999999999981
    vertex 112.48236190979495 0.8681483474218673 -3.0
    vertex 112.0 1.0679491924311264 -3.0
  endloop
endfacet
facet normal 0.3826834323650934 0.9238795325112852 0.0
  outer loop
    vertex 112.48236190979495 0.8681483474218673 -3.0
    vertex 112.0 1.0679491924311264 -0.9999999999999981
    vertex 112.48236190979495 0.8681483474218673 -0.9999999999999981
  endloop
endfacet
facet normal 0.13052619222005007 0.9914448613738106 0.0
  outer loop
    vertex 112.48236190979495 0.8681483474218673 -0.9999999999999981
    vertex 113.0 0.8000000000000042 -3.0
    vertex 112.48236190979495 0.8681483474218673 -3.0
  endloop
endfacet
facet normal 0.13052619222005007 0.9914448613738106 0.0
  outer loop
    vertex 113.0 0.8000000000000042 -3.0
    vertex 112.48236190979495 0.8681483474218673 -0.9999999999999981
    vertex 113.0 0.8000000000000042 -0.9999999999999981
  endloop
endfacet
facet normal 0.38268343236509395 -0.923879532511285 -0.0
  outer loop
    vertex 112.48236190979495 4.731851652578134 -0.9999999999999981
    vertex 112.0 4.532050807568874 -3.0
    vertex 112.48236190979495 4.731851652578134 -3.0
  endloop
endfacet
facet normal 0.38268343236509395 -0.923879532511285 -0.0
  outer loop
    vertex 112.0 4.532050807568874 -3.0
    vertex 112.48236190979495 4.731851652578134 -0.9999999999999981
    vertex 112.0 4.532050807568874 -0.9999999999999981
  endloop
endfacet
facet normal -0.13052619222005077 0.9914448613738106 -0.0
  outer loop
    vertex 113.0 0.8000000000000042 -0.9999999999999981
    vertex 113.51763809020504 0.8681483474218676 -3.0
    vertex 113.0 0.8000000000000042 -3.0
  endloop
endfacet
facet normal -0.13052619222005077 0.9914448613738106 -0.0
  outer loop
    vertex 113.51763809020504 0.8681483474218676 -3.0
    vertex 113.0 0.8000000000000042 -0.9999999999999981
    vertex 113.51763809020504 0.8681483474218676 -0.9999999999999981
  endloop
endfacet
facet normal 0.6087614290087149 0.7933533402912397 0.0
  outer loop
    vertex 111.5857864376269 1.385786437626908 -0.9999999999999981
    vertex 112.0 1.0679491924311264 -3.0
    vertex 111.5857864376269 1.385786437626908 -3.0
  endloop
endfacet
facet normal 0.6087614290087149 0.7933533402912397 0.0
  outer loop
    vertex 112.0 1.0679491924311264 -3.0
    vertex 111.5857864376269 1.385786437626908 -0.9999999999999981
    vertex 112.0 1.0679491924311264 -0.9999999999999981
  endloop
endfacet
facet normal -0.38268343236509283 0.9238795325112855 -0.0
  outer loop
    vertex 113.51763809020504 0.8681483474218676 -0.9999999999999981
    vertex 114.0 1.0679491924311264 -3.0
    vertex 113.51763809020504 0.8681483474218676 -3.0
  endloop
endfacet
facet normal -0.38268343236509283 0.9238795325112855 -0.0
  outer loop
    vertex 114.0 1.0679491924311264 -3.0
    vertex 113.51763809020504 0.8681483474218676 -0.9999999999999981
    vertex 114.0 1.0679491924311264 -0.9999999999999981
  endloop
endfacet
facet normal -0.0 1.0 -0.0
  outer loop
    vertex 94.50000000000001 15.3 -0.9999999999999957
    vertex 115.49999999999999 15.3 -2.9999999999999973
    vertex 94.50000000000001 15.3 -2.9999999999999973
  endloop
endfacet
facet normal -0.0 1.0 -0.0
  outer loop
    vertex 115.49999999999999 15.3 -2.9999999999999973
    vertex 94.50000000000001 15.3 -0.9999999999999957
    vertex 115.49999999999999 15.3 -0.9999999999999957
  endloop
endfacet
facet normal -1.0 0.0 0.0
  outer loop
    vertex 121.0 58.300000000000004 24.0
    vertex 121.0 0.29999999999999943 18.0
    vertex 121.0 0.29999999999999943 24.0
  endloop
endfacet
facet normal -1.0 0.0 0.0
  outer loop
    vertex 121.0 0.29999999999999943 18.0
    vertex 121.0 58.300000000000004 24.0
    vertex 121.0 2.2999999999999994 18.0
  endloop
endfacet
facet normal -1.0 0.0 0.0
  outer loop
    vertex 121.0 2.2999999999999994 18.0
    vertex 121.0 58.300000000000004 24.0
    vertex 121.0 56.30000000000001 17.999999999999996
  endloop
endfacet
facet normal -1.0 0.0 0.0
  outer loop
    vertex 121.0 56.30000000000001 17.999999999999996
    vertex 121.0 58.300000000000004 24.0
    vertex 121.0 58.300000000000004 17.999999999999996
  endloop
endfacet
facet normal -1.0 0.0 0.0
  outer loop
    vertex 121.0 -1.7000000000000004 14.000000000000002
    vertex 121.0 -13.700000000000001 -0.9999999999999994
    vertex 121.0 -13.700000000000001 14.000000000000002
  endloop
endfacet
facet normal -1.0 0.0 0.0
  outer loop
    vertex 121.0 -13.700000000000001 -0.9999999999999994
    vertex 121.0 -1.7000000000000004 14.000000000000002
    vertex 121.0 -1.6999999999999944 6.999999999999998
  endloop
endfacet
facet normal -1.0 0.0 0.0
  outer loop
    vertex 121.0 -13.700000000000001 -0.9999999999999994
    vertex 121.0 -1.6999999999999944 6.999999999999998
    vertex 121.0 56.30000000000001 -0.9999999999999964
  endloop
endfacet
facet normal -1.0 0.0 0.0
  outer loop
    vertex 121.0 56.30000000000001 -0.9999999999999964
    vertex 121.0 -1.6999999999999944 6.999999999999998
    vertex 121.0 2.299999999999973 6.999999999999996
  endloop
endfacet
facet normal -1.0 0.0 0.0
  outer loop
    vertex 121.0 56.30000000000001 -0.9999999999999964
    vertex 121.0 2.299999999999973 6.999999999999996
    vertex 121.0 2.2999999999999994 18.0
  endloop
endfacet
facet normal -1.0 0.0 0.0
  outer loop
    vertex 121.0 56.30000000000001 -0.9999999999999964
    vertex 121.0 2.2999999999999994 18.0
    vertex 121.0 56.30000000000001 17.999999999999996
  endloop
endfacet
facet normal -1.0 0.0 0.0
  outer loop
    vertex 87.5 61.3 24.000000000000007
    vertex 87.5 -1.7000000000000004 14.000000000000002
    vertex 87.5 -1.7000000000000004 24.000000000000007
  endloop
endfacet
facet normal -1.0 0.0 0.0
  outer loop
    vertex 87.5 -1.7000000000000004 14.000000000000002
    vertex 87.5 61.3 24.000000000000007
    vertex 87.5 -1.7000000000000004 -2.999999999999999
  endloop
endfacet
facet normal -1.0 0.0 0.0
  outer loop
    vertex 87.5 -1.7000000000000004 -2.999999999999999
    vertex 87.5 61.3 24.000000000000007
    vertex 87.5 61.3 -2.999999999999999
  endloop
endfacet
facet normal 5.164515271358715e-33 6.345362196918763e-18 -1.0
  outer loop
    vertex 94.50000000000001 15.3 -2.9999999999999973
    vertex 95.06814834742185 3.3176380902050404 -3.0
    vertex 94.99999999999999 2.8000000000000003 -3.0
  endloop
endfacet
facet normal 5.164515271358715e-33 6.345362196918763e-18 -1.0
  outer loop
    vertex 95.06814834742185 3.3176380902050404 -3.0
    vertex 94.50000000000001 15.3 -2.9999999999999973
    vertex 95.2679491924311 3.799999999999998 -3.0
  endloop
endfacet
facet normal 5.164515271358715e-33 6.345362196918763e-18 -1.0
  outer loop
    vertex 95.2679491924311 3.799999999999998 -3.0
    vertex 94.50000000000001 15.3 -2.9999999999999973
    vertex 95.58578643762688 4.214213562373092 -3.0
  endloop
endfacet
facet normal 5.164515271358715e-33 6.345362196918763e-18 -1.0
  outer loop
    vertex 95.58578643762688 4.214213562373092 -3.0
    vertex 94.50000000000001 15.3 -2.9999999999999973
    vertex 95.99999999999999 4.532050807568874 -3.0
  endloop
endfacet
facet normal 5.164515271358715e-33 6.345362196918763e-18 -1.0
  outer loop
    vertex 95.99999999999999 4.532050807568874 -3.0
    vertex 94.50000000000001 15.3 -2.9999999999999973
    vertex 115.49999999999999 15.3 -2.9999999999999973
  endloop
endfacet
facet normal 5.164515271358715e-33 6.345362196918763e-18 -1.0
  outer loop
    vertex 95.99999999999999 4.532050807568874 -3.0
    vertex 115.49999999999999 15.3 -2.9999999999999973
    vertex 96.48236190979493 4.731851652578134 -3.0
  endloop
endfacet
facet normal 5.164515271358715e-33 6.345362196918763e-18 -1.0
  outer loop
    vertex 96.48236190979493 4.731851652578134 -3.0
    vertex 115.49999999999999 15.3 -2.9999999999999973
    vertex 96.99999999999999 4.799999999999997 -3.0
  endloop
endfacet
facet normal 5.164515271358715e-33 6.345362196918763e-18 -1.0
  outer loop
    vertex 96.99999999999999 4.799999999999997 -3.0
    vertex 115.49999999999999 15.3 -2.9999999999999973
    vertex 97.51763809020501 4.731851652578134 -3.0
  endloop
endfacet
facet normal 5.164515271358715e-33 6.345362196918763e-18 -1.0
  outer loop
    vertex 97.51763809020501 4.731851652578134 -3.0
    vertex 115.49999999999999 15.3 -2.9999999999999973
    vertex 97.99999999999997 4.532050807568876 -3.0
  endloop
endfacet
facet normal 5.164515271358715e-33 6.345362196918763e-18 -1.0
  outer loop
    vertex 97.99999999999997 4.532050807568876 -3.0
    vertex 115.49999999999999 15.3 -2.9999999999999973
    vertex 98.41421356237306 4.214213562373094 -3.0
  endloop
endfacet
facet normal 5.164515271358715e-33 6.345362196918763e-18 -1.0
  outer loop
    vertex 98.41421356237306 4.214213562373094 -3.0
    vertex 115.49999999999999 15.3 -2.9999999999999973
    vertex 98.73205080756885 3.7999999999999994 -3.0
  endloop
endfacet
facet normal 5.164515271358715e-33 6.345362196918763e-18 -1.0
  outer loop
    vertex 98.73205080756885 3.7999999999999994 -3.0
    vertex 115.49999999999999 15.3 -2.9999999999999973
    vertex 98.93185165257812 3.3176380902050426 -3.0
  endloop
endfacet
facet normal 5.164515271358715e-33 6.345362196918763e-18 -1.0
  outer loop
    vertex 98.93185165257812 3.3176380902050426 -3.0
    vertex 115.49999999999999 15.3 -2.9999999999999973
    vertex 98.99999999999997 2.8000000000000007 -3.0
  endloop
endfacet
facet normal 5.164515271358715e-33 6.345362196918763e-18 -1.0
  outer loop
    vertex 98.99999999999997 2.8000000000000007 -3.0
    vertex 115.49999999999999 15.3 -2.9999999999999973
    vertex 111.06814834742185 3.3176380902050404 -3.0
  endloop
endfacet
facet normal 5.164515271358715e-33 6.345362196918763e-18 -1.0
  outer loop
    vertex 98.99999999999997 2.8000000000000007 -3.0
    vertex 111.06814834742185 3.3176380902050404 -3.0
    vertex 111.0 2.8000000000000003 -3.0
  endloop
endfacet
facet normal 5.164515271358715e-33 6.345362196918763e-18 -1.0
  outer loop
    vertex 111.06814834742185 3.3176380902050404 -3.0
    vertex 115.49999999999999 15.3 -2.9999999999999973
    vertex 111.26794919243113 3.799999999999998 -3.0
  endloop
endfacet
facet normal 5.164515271358715e-33 6.345362196918763e-18 -1.0
  outer loop
    vertex 111.26794919243113 3.799999999999998 -3.0
    vertex 115.49999999999999 15.3 -2.9999999999999973
    vertex 111.5857864376269 4.214213562373092 -3.0
  endloop
endfacet
facet normal 5.164515271358715e-33 6.345362196918763e-18 -1.0
  outer loop
    vertex 111.5857864376269 4.214213562373092 -3.0
    vertex 115.49999999999999 15.3 -2.9999999999999973
    vertex 112.0 4.532050807568874 -3.0
  endloop
endfacet
facet normal 5.164515271358715e-33 6.345362196918763e-18 -1.0
  outer loop
    vertex 112.0 4.532050807568874 -3.0
    vertex 115.49999999999999 15.3 -2.9999999999999973
    vertex 112.48236190979495 4.731851652578134 -3.0
  endloop
endfacet
facet normal 5.164515271358715e-33 6.345362196918763e-18 -1.0
  outer loop
    vertex 112.48236190979495 4.731851652578134 -3.0
    vertex 115.49999999999999 15.3 -2.9999999999999973
    vertex 113.0 4.799999999999997 -3.0
  endloop
endfacet
facet normal 5.164515271358715e-33 6.345362196918763e-18 -1.0
  outer loop
    vertex 113.0 4.799999999999997 -3.0
    vertex 115.49999999999999 15.3 -2.9999999999999973
    vertex 113.51763809020504 4.731851652578134 -3.0
  endloop
endfacet
facet normal 5.164515271358715e-33 6.345362196918763e-18 -1.0
  outer loop
    vertex 113.51763809020504 4.731851652578134 -3.0
    vertex 115.49999999999999 15.3 -2.9999999999999973
    vertex 114.0 4.532050807568876 -3.0
  endloop
endfacet
facet normal 5.164515271358715e-33 6.345362196918763e-18 -1.0
  outer loop
    vertex 114.0 4.532050807568876 -3.0
    vertex 115.49999999999999 15.3 -2.9999999999999973
    vertex 114.41421356237309 4.214213562373094 -3.0
  endloop
endfacet
facet normal 5.164515271358715e-33 6.345362196918763e-18 -1.0
  outer loop
    vertex 114.41421356237309 4.214213562373094 -3.0
    vertex 115.49999999999999 15.3 -2.9999999999999973
    vertex 114.73205080756887 3.7999999999999994 -3.0
  endloop
endfacet
facet normal 5.164515271358715e-33 6.345362196918763e-18 -1.0
  outer loop
    vertex 114.73205080756887 3.7999999999999994 -3.0
    vertex 115.49999999999999 15.3 -2.9999999999999973
    vertex 114.93185165257812 3.3176380902050426 -3.0
  endloop
endfacet
facet normal 5.164515271358715e-33 6.345362196918763e-18 -1.0
  outer loop
    vertex 114.93185165257812 3.3176380902050426 -3.0
    vertex 115.49999999999999 15.3 -2.9999999999999973
    vertex 114.99999999999999 2.8000000000000007 -3.0
  endloop
endfacet
facet normal 5.164515271358715e-33 6.345362196918763e-18 -1.0
  outer loop
    vertex 87.5 61.3 -2.999999999999999
    vertex 94.50000000000001 55.3 -2.999999999999999
    vertex 87.5 -1.7000000000000004 -2.999999999999999
  endloop
endfacet
facet normal 5.164515271358715e-33 6.345362196918763e-18 -1.0
  outer loop
    vertex 94.50000000000001 55.3 -2.999999999999999
    vertex 87.5 61.3 -2.999999999999999
    vertex 98.0 61.3 -2.9999999999999996
  endloop
endfacet
facet normal 5.164515271358715e-33 6.345362196918763e-18 -1.0
  outer loop
    vertex 87.5 -1.7000000000000004 -2.999999999999999
    vertex 94.50000000000001 55.3 -2.999999999999999
    vertex 87.5 -13.700000000000001 -3.0
  endloop
endfacet
facet normal 5.164515271358715e-33 6.345362196918763e-18 -1.0
  outer loop
    vertex 94.50000000000001 55.3 -2.999999999999999
    vertex 98.0 61.3 -2.9999999999999996
    vertex 115.49999999999999 55.3 -2.999999999999999
  endloop
endfacet
facet normal 5.164515271358715e-33 6.345362196918763e-18 -1.0
  outer loop
    vertex 115.49999999999999 55.3 -2.999999999999999
    vertex 98.0 61.3 -2.9999999999999996
    vertex 112.0 61.3 -2.9999999999999996
  endloop
endfacet
facet normal 5.164515271358715e-33 6.345362196918763e-18 -1.0
  outer loop
    vertex 115.49999999999999 55.3 -2.999999999999999
    vertex 112.0 61.3 -2.9999999999999996
    vertex 122.5 61.3 -2.999999999999999
  endloop
endfacet
facet normal 5.164515271358715e-33 6.345362196918763e-18 -1.0
  outer loop
    vertex 115.49999999999999 55.3 -2.999999999999999
    vertex 122.5 61.3 -2.999999999999999
    vertex 115.49999999999999 15.3 -2.9999999999999973
  endloop
endfacet
facet normal 5.164515271358715e-33 6.345362196918763e-18 -1.0
  outer loop
    vertex 115.49999999999999 15.3 -2.9999999999999973
    vertex 122.5 61.3 -2.999999999999999
    vertex 122.49999999999997 -13.700000000000001 -3.0
  endloop
endfacet
facet normal 5.164515271358715e-33 6.345362196918763e-18 -1.0
  outer loop
    vertex 122.49999999999997 -13.700000000000001 -3.0
    vertex 122.5 61.3 -2.999999999999999
    vertex 122.5 -1.7000000000000004 -2.999999999999999
  endloop
endfacet
facet normal 5.164515271358715e-33 6.345362196918763e-18 -1.0
  outer loop
    vertex 87.5 -13.700000000000001 -3.0
    vertex 95.99999999999999 1.0679491924311264 -3.0
    vertex 122.49999999999997 -13.700000000000001 -3.0
  endloop
endfacet
facet normal 5.164515271358715e-33 6.345362196918763e-18 -1.0
  outer loop
    vertex 95.99999999999999 1.0679491924311264 -3.0
    vertex 87.5 -13.700000000000001 -3.0
    vertex 95.5857864376269 1.385786437626908 -3.0
  endloop
endfacet
facet normal 5.164515271358715e-33 6.345362196918763e-18 -1.0
  outer loop
    vertex 95.5857864376269 1.385786437626908 -3.0
    vertex 87.5 -13.700000000000001 -3.0
    vertex 95.2679491924311 1.8000000000000016 -3.0
  endloop
endfacet
facet normal 5.164515271358715e-33 6.345362196918763e-18 -1.0
  outer loop
    vertex 95.2679491924311 1.8000000000000016 -3.0
    vertex 87.5 -13.700000000000001 -3.0
    vertex 95.06814834742185 2.2823619097949592 -3.0
  endloop
endfacet
facet normal 5.164515271358715e-33 6.345362196918763e-18 -1.0
  outer loop
    vertex 95.06814834742185 2.2823619097949592 -3.0
    vertex 87.5 -13.700000000000001 -3.0
    vertex 94.99999999999999 2.8000000000000003 -3.0
  endloop
endfacet
facet normal 5.164515271358715e-33 6.345362196918763e-18 -1.0
  outer loop
    vertex 94.99999999999999 2.8000000000000003 -3.0
    vertex 87.5 -13.700000000000001 -3.0
    vertex 94.50000000000001 15.3 -2.9999999999999973
  endloop
endfacet
facet normal 5.164515271358715e-33 6.345362196918763e-18 -1.0
  outer loop
    vertex 94.50000000000001 15.3 -2.9999999999999973
    vertex 87.5 -13.700000000000001 -3.0
    vertex 94.50000000000001 55.3 -2.999999999999999
  endloop
endfacet
facet normal 5.164515271358715e-33 6.345362196918763e-18 -1.0
  outer loop
    vertex 122.49999999999997 -13.700000000000001 -3.0
    vertex 95.99999999999999 1.0679491924311264 -3.0
    vertex 96.48236190979493 0.8681483474218673 -3.0
  endloop
endfacet
facet normal 5.164515271358715e-33 6.345362196918763e-18 -1.0
  outer loop
    vertex 122.49999999999997 -13.700000000000001 -3.0
    vertex 96.48236190979493 0.8681483474218673 -3.0
    vertex 96.99999999999999 0.8000000000000042 -3.0
  endloop
endfacet
facet normal 5.164515271358715e-33 6.345362196918763e-18 -1.0
  outer loop
    vertex 122.49999999999997 -13.700000000000001 -3.0
    vertex 96.99999999999999 0.8000000000000042 -3.0
    vertex 97.51763809020503 0.8681483474218676 -3.0
  endloop
endfacet
facet normal 5.164515271358715e-33 6.345362196918763e-18 -1.0
  outer loop
    vertex 122.49999999999997 -13.700000000000001 -3.0
    vertex 97.51763809020503 0.8681483474218676 -3.0
    vertex 97.99999999999997 1.0679491924311264 -3.0
  endloop
endfacet
facet normal 5.164515271358715e-33 6.345362196918763e-18 -1.0
  outer loop
    vertex 122.49999999999997 -13.700000000000001 -3.0
    vertex 97.99999999999997 1.0679491924311264 -3.0
    vertex 98.41421356237306 1.385786437626908 -3.0
  endloop
endfacet
facet normal 5.164515271358715e-33 6.345362196918763e-18 -1.0
  outer loop
    vertex 122.49999999999997 -13.700000000000001 -3.0
    vertex 98.41421356237306 1.385786437626908 -3.0
    vertex 98.73205080756885 1.8000000000000023 -3.0
  endloop
endfacet
facet normal 5.164515271358715e-33 6.345362196918763e-18 -1.0
  outer loop
    vertex 122.49999999999997 -13.700000000000001 -3.0
    vertex 98.73205080756885 1.8000000000000023 -3.0
    vertex 98.93185165257812 2.28236190979496 -3.0
  endloop
endfacet
facet normal 5.164515271358715e-33 6.345362196918763e-18 -1.0
  outer loop
    vertex 122.49999999999997 -13.700000000000001 -3.0
    vertex 98.93185165257812 2.28236190979496 -3.0
    vertex 98.99999999999997 2.8000000000000007 -3.0
  endloop
endfacet
facet normal 5.164515271358715e-33 6.345362196918763e-18 -1.0
  outer loop
    vertex 122.49999999999997 -13.700000000000001 -3.0
    vertex 98.99999999999997 2.8000000000000007 -3.0
    vertex 111.26794919243113 1.8000000000000016 -3.0
  endloop
endfacet
facet normal 5.164515271358715e-33 6.345362196918763e-18 -1.0
  outer loop
    vertex 111.26794919243113 1.8000000000000016 -3.0
    vertex 98.99999999999997 2.8000000000000007 -3.0
    vertex 111.06814834742185 2.2823619097949592 -3.0
  endloop
endfacet
facet normal 5.164515271358715e-33 6.345362196918763e-18 -1.0
  outer loop
    vertex 111.06814834742185 2.2823619097949592 -3.0
    vertex 98.99999999999997 2.8000000000000007 -3.0
    vertex 111.0 2.8000000000000003 -3.0
  endloop
endfacet
facet normal 5.164515271358715e-33 6.345362196918763e-18 -1.0
  outer loop
    vertex 122.49999999999997 -13.700000000000001 -3.0
    vertex 111.26794919243113 1.8000000000000016 -3.0
    vertex 111.5857864376269 1.385786437626908 -3.0
  endloop
endfacet
facet normal 5.164515271358715e-33 6.345362196918763e-18 -1.0
  outer loop
    vertex 122.49999999999997 -13.700000000000001 -3.0
    vertex 111.5857864376269 1.385786437626908 -3.0
    vertex 112.0 1.0679491924311264 -3.0
  endloop
endfacet
facet normal 5.164515271358715e-33 6.345362196918763e-18 -1.0
  outer loop
    vertex 122.49999999999997 -13.700000000000001 -3.0
    vertex 112.0 1.0679491924311264 -3.0
    vertex 112.48236190979495 0.8681483474218673 -3.0
  endloop
endfacet
facet normal 5.164515271358715e-33 6.345362196918763e-18 -1.0
  outer loop
    vertex 122.49999999999997 -13.700000000000001 -3.0
    vertex 112.48236190979495 0.8681483474218673 -3.0
    vertex 113.0 0.8000000000000042 -3.0
  endloop
endfacet
facet normal 5.164515271358715e-33 6.345362196918763e-18 -1.0
  outer loop
    vertex 122.49999999999997 -13.700000000000001 -3.0
    vertex 113.0 0.8000000000000042 -3.0
    vertex 113.51763809020504 0.8681483474218676 -3.0
  endloop
endfacet
facet normal 5.164515271358715e-33 6.345362196918763e-18 -1.0
  outer loop
    vertex 122.49999999999997 -13.700000000000001 -3.0
    vertex 113.51763809020504 0.8681483474218676 -3.0
    vertex 114.0 1.0679491924311264 -3.0
  endloop
endfacet
facet normal 5.164515271358715e-33 6.345362196918763e-18 -1.0
  outer loop
    vertex 122.49999999999997 -13.700000000000001 -3.0
    vertex 114.0 1.0679491924311264 -3.0
    vertex 114.41421356237309 1.385786437626908 -3.0
  endloop
endfacet
facet normal 5.164515271358715e-33 6.345362196918763e-18 -1.0
  outer loop
    vertex 122.49999999999997 -13.700000000000001 -3.0
    vertex 114.41421356237309 1.385786437626908 -3.0
    vertex 114.73205080756887 1.8000000000000023 -3.0
  endloop
endfacet
facet normal 5.164515271358715e-33 6.345362196918763e-18 -1.0
  outer loop
    vertex 122.49999999999997 -13.700000000000001 -3.0
    vertex 114.73205080756887 1.8000000000000023 -3.0
    vertex 114.93185165257815 2.28236190979496 -3.0
  endloop
endfacet
facet normal 5.164515271358715e-33 6.345362196918763e-18 -1.0
  outer loop
    vertex 122.49999999999997 -13.700000000000001 -3.0
    vertex 114.93185165257815 2.28236190979496 -3.0
    vertex 114.99999999999999 2.8000000000000007 -3.0
  endloop
endfacet
facet normal 5.164515271358715e-33 6.345362196918763e-18 -1.0
  outer loop
    vertex 122.49999999999997 -13.700000000000001 -3.0
    vertex 114.99999999999999 2.8000000000000007 -3.0
    vertex 115.49999999999999 15.3 -2.9999999999999973
  endloop
endfacet
facet normal 1.0 0.0 0.0
  outer loop
    vertex 94.50000000000001 55.3 -2.999999999999999
    vertex 94.50000000000001 15.3 -0.9999999999999957
    vertex 94.50000000000001 15.3 -2.9999999999999973
  endloop
endfacet
facet normal 1.0 0.0 0.0
  outer loop
    vertex 94.50000000000001 15.3 -0.9999999999999957
    vertex 94.50000000000001 55.3 -2.999999999999999
    vertex 94.50000000000001 55.3 -0.9999999999999974
  endloop
endfacet
facet normal -1.0 0.0 0.0
  outer loop
    vertex 115.49999999999999 55.3 -0.9999999999999974
    vertex 115.49999999999999 15.3 -2.9999999999999973
    vertex 115.49999999999999 15.3 -0.9999999999999957
  endloop
endfacet
facet normal -1.0 0.0 0.0
  outer loop
    vertex 115.49999999999999 15.3 -2.9999999999999973
    vertex 115.49999999999999 55.3 -0.9999999999999974
    vertex 115.49999999999999 55.3 -2.999999999999999
  endloop
endfacet
facet normal 1.0 -1.1804129586841756e-16 7.140769750064757e-17
  outer loop
    vertex 122.5 61.3 -2.999999999999999
    vertex 122.49999999999997 -1.7000000000000004 14.000000000000002
    vertex 122.5 -1.7000000000000004 -2.999999999999999
  endloop
endfacet
facet normal 1.0 -1.1804129586841756e-16 7.140769750064757e-17
  outer loop
    vertex 122.49999999999997 -1.7000000000000004 14.000000000000002
    vertex 122.5 61.3 -2.999999999999999
    vertex 122.5 -1.7000000000000004 24.000000000000007
  endloop
endfacet
facet normal 1.0 -1.1804129586841756e-16 7.140769750064757e-17
  outer loop
    vertex 122.5 -1.7000000000000004 24.000000000000007
    vertex 122.5 61.3 -2.999999999999999
    vertex 122.5 61.3 24.000000000000007
  endloop
endfacet
facet normal -0.0 -1.0 -0.0
  outer loop
    vertex 115.49999999999999 55.3 -0.9999999999999974
    vertex 94.50000000000001 55.3 -2.999999999999999
    vertex 115.49999999999999 55.3 -2.999999999999999
  endloop
endfacet
facet normal -0.0 -1.0 -0.0
  outer loop
    vertex 94.50000000000001 55.3 -2.999999999999999
    vertex 115.49999999999999 55.3 -0.9999999999999974
    vertex 94.50000000000001 55.3 -0.9999999999999974
  endloop
endfacet
facet normal 0.0 -1.0 0.0
  outer loop
    vertex 98.0 58.300000000000004 24.0
    vertex 89.0 58.300000000000004 17.999999999999996
    vertex 98.0 58.300000000000004 17.999999999999996
  endloop
endfacet
facet normal 0.0 -1.0 0.0
  outer loop
    vertex 89.0 58.300000000000004 17.999999999999996
    vertex 98.0 58.300000000000004 24.0
    vertex 89.0 58.300000000000004 24.0
  endloop
endfacet
facet normal -2.0053094987007283e-17 -1.497251413165596e-33 1.0
  outer loop
    vertex 87.5 -1.7000000000000004 24.000000000000007
    vertex 89.0 0.2999999999999995 24.0
    vertex 87.5 61.3 24.000000000000007
  endloop
endfacet
facet normal -2.0053094987007283e-17 -1.497251413165596e-33 1.0
  outer loop
    vertex 89.0 0.2999999999999995 24.0
    vertex 87.5 -1.7000000000000004 24.000000000000007
    vertex 122.5 -1.7000000000000004 24.000000000000007
  endloop
endfacet
facet normal -2.0053094987007283e-17 -1.497251413165596e-33 1.0
  outer loop
    vertex 89.0 0.2999999999999995 24.0
    vertex 122.5 -1.7000000000000004 24.000000000000007
    vertex 121.0 0.29999999999999943 24.0
  endloop
endfacet
facet normal -2.0053094987007283e-17 -1.497251413165596e-33 1.0
  outer loop
    vertex 121.0 0.29999999999999943 24.0
    vertex 122.5 -1.7000000000000004 24.000000000000007
    vertex 121.0 58.300000000000004 24.0
  endloop
endfacet
facet normal -2.0053094987007283e-17 -1.497251413165596e-33 1.0
  outer loop
    vertex 121.0 58.300000000000004 24.0
    vertex 112.0 61.3 24.000000000000007
    vertex 112.0 58.300000000000004 24.000000000000007
  endloop
endfacet
facet normal -2.0053094987007283e-17 -1.497251413165596e-33 1.0
  outer loop
    vertex 112.0 61.3 24.000000000000007
    vertex 121.0 58.300000000000004 24.0
    vertex 122.5 61.3 24.000000000000007
  endloop
endfacet
facet normal -2.0053094987007283e-17 -1.497251413165596e-33 1.0
  outer loop
    vertex 122.5 61.3 24.000000000000007
    vertex 121.0 58.300000000000004 24.0
    vertex 122.5 -1.7000000000000004 24.000000000000007
  endloop
endfacet
facet normal -2.0053094987007283e-17 -1.497251413165596e-33 1.0
  outer loop
    vertex 87.5 61.3 24.000000000000007
    vertex 89.0 58.300000000000004 24.0
    vertex 98.0 61.3 24.0
  endloop
endfacet
facet normal -2.0053094987007283e-17 -1.497251413165596e-33 1.0
  outer loop
    vertex 89.0 58.300000000000004 24.0
    vertex 87.5 61.3 24.000000000000007
    vertex 89.0 0.2999999999999995 24.0
  endloop
endfacet
facet normal -2.0053094987007283e-17 -1.497251413165596e-33 1.0
  outer loop
    vertex 98.0 61.3 24.0
    vertex 89.0 58.300000000000004 24.0
    vertex 98.0 58.300000000000004 24.0
  endloop
endfacet
facet normal -1.8881536388749383e-31 1.0 -2.375400871026819e-15
  outer loop
    vertex 89.0 0.2999999999999995 24.0
    vertex 121.0 0.29999999999999943 18.0
    vertex 89.0 0.2999999999999995 18.0
  endloop
endfacet
facet normal -1.8881536388749383e-31 1.0 -2.375400871026819e-15
  outer loop
    vertex 121.0 0.29999999999999943 18.0
    vertex 89.0 0.2999999999999995 24.0
    vertex 121.0 0.29999999999999943 24.0
  endloop
endfacet
facet normal -0.0 -0.0 1.0
  outer loop
    vertex 88.99999999999999 -13.700000000000001 14.000000000000002
    vertex 87.5 -1.7000000000000004 14.000000000000002
    vertex 87.5 -13.700000000000001 14.000000000000002
  endloop
endfacet
facet normal -0.0 -0.0 1.0
  outer loop
    vertex 87.5 -1.7000000000000004 14.000000000000002
    vertex 88.99999999999999 -13.700000000000001 14.000000000000002
    vertex 88.99999999999999 -1.7000000000000004 14.000000000000002
  endloop
endfacet
facet normal -0.355995327591988 0.934487734928968 -1.2592845079204722e-17
  outer loop
    vertex 87.5 61.3 24.000000000000007
    vertex 98.0 65.30000000000001 17.999999999999996
    vertex 87.5 61.3 -2.999999999999999
  endloop
endfacet
facet normal 3.3176076265269355e-16 -0.0 1.0
  outer loop
    vertex 98.0 56.30000000000001 17.999999999999996
    vertex 89.0 58.300000000000004 17.999999999999996
    vertex 89.0 56.30000000000001 17.999999999999996
  endloop
endfacet
facet normal 3.3176076265269355e-16 -0.0 1.0
  outer loop
    vertex 89.0 58.300000000000004 17.999999999999996
    vertex 98.0 56.30000000000001 17.999999999999996
    vertex 98.0 58.300000000000004 17.999999999999996
  endloop
endfacet
facet normal 0.0 -1.0 0.0
  outer loop
    vertex 98.0 56.30000000000001 -0.9999999999999959
    vertex 89.0 56.30000000000001 17.999999999999996
    vertex 89.0 56.30000000000001 -0.9999999999999962
  endloop
endfacet
facet normal 0.0 -1.0 0.0
  outer loop
    vertex 89.0 56.30000000000001 17.999999999999996
    vertex 98.0 56.30000000000001 -0.9999999999999959
    vertex 98.0 56.30000000000001 17.999999999999996
  endloop
endfacet
facet normal 1.0 -9.944855073482345e-17 -2.0286681968782317e-16
  outer loop
    vertex 88.99999999999999 -13.700000000000001 -0.9999999999999992
    vertex 88.99999999999999 -1.6999999999999944 6.999999999999998
    vertex 88.99999999999999 -13.700000000000001 14.000000000000002
  endloop
endfacet
facet normal 1.0 -9.944855073482345e-17 -2.0286681968782317e-16
  outer loop
    vertex 88.99999999999999 -1.6999999999999944 6.999999999999998
    vertex 88.99999999999999 -13.700000000000001 -0.9999999999999992
    vertex 89.0 56.30000000000001 -0.9999999999999962
  endloop
endfacet
facet normal 1.0 -9.944855073482345e-17 -2.0286681968782317e-16
  outer loop
    vertex 88.99999999999999 -13.700000000000001 14.000000000000002
    vertex 88.99999999999999 -1.6999999999999944 6.999999999999998
    vertex 88.99999999999999 -1.7000000000000004 14.000000000000002
  endloop
endfacet
facet normal 1.0 -9.944855073482345e-17 -2.0286681968782317e-16
  outer loop
    vertex 88.99999999999999 -1.6999999999999944 6.999999999999998
    vertex 89.0 56.30000000000001 -0.9999999999999962
    vertex 89.0 2.2999999999999767 6.999999999999996
  endloop
endfacet
facet normal 1.0 -9.944855073482345e-17 -2.0286681968782317e-16
  outer loop
    vertex 89.0 2.2999999999999767 6.999999999999996
    vertex 89.0 56.30000000000001 -0.9999999999999962
    vertex 89.0 2.2999999999999994 18.0
  endloop
endfacet
facet normal 1.0 -9.944855073482345e-17 -2.0286681968782317e-16
  outer loop
    vertex 89.0 2.2999999999999994 18.0
    vertex 89.0 0.2999999999999995 24.0
    vertex 89.0 0.2999999999999995 18.0
  endloop
endfacet
facet normal 1.0 -9.944855073482345e-17 -2.0286681968782317e-16
  outer loop
    vertex 89.0 0.2999999999999995 24.0
    vertex 89.0 2.2999999999999994 18.0
    vertex 89.0 58.300000000000004 24.0
  endloop
endfacet
facet normal 1.0 -9.944855073482345e-17 -2.0286681968782317e-16
  outer loop
    vertex 89.0 58.300000000000004 24.0
    vertex 89.0 2.2999999999999994 18.0
    vertex 89.0 56.30000000000001 17.999999999999996
  endloop
endfacet
facet normal 1.0 -9.944855073482345e-17 -2.0286681968782317e-16
  outer loop
    vertex 89.0 56.30000000000001 17.999999999999996
    vertex 89.0 2.2999999999999994 18.0
    vertex 89.0 56.30000000000001 -0.9999999999999962
  endloop
endfacet
facet normal 1.0 -9.944855073482345e-17 -2.0286681968782317e-16
  outer loop
    vertex 89.0 58.300000000000004 24.0
    vertex 89.0 56.30000000000001 17.999999999999996
    vertex 89.0 58.300000000000004 17.999999999999996
  endloop
endfacet
facet normal 1.0 -0.0 -0.0
  outer loop
    vertex 98.0 65.30000000000001 17.999999999999996
    vertex 98.0 58.300000000000004 24.0
    vertex 98.0 58.300000000000004 17.999999999999996
  endloop
endfacet
facet normal 1.0 -0.0 -0.0
  outer loop
    vertex 98.0 58.300000000000004 24.0
    vertex 98.0 65.30000000000001 17.999999999999996
    vertex 98.0 61.3 24.0
  endloop
endfacet
facet normal 0.7933533402912261 0.6087614290087324 0.0
  outer loop
    vertex 95.2679491924311 1.8000000000000016 -3.0
    vertex 95.5857864376269 1.385786437626908 -0.9999999999999986
    vertex 95.5857864376269 1.385786437626908 -3.0
  endloop
endfacet
facet normal 0.7933533402912261 0.6087614290087324 0.0
  outer loop
    vertex 95.5857864376269 1.385786437626908 -0.9999999999999986
    vertex 95.2679491924311 1.8000000000000016 -3.0
    vertex 95.2679491924311 1.8000000000000016 -0.9999999999999986
  endloop
endfacet
facet normal 0.6087614290087253 0.7933533402912316 0.0
  outer loop
    vertex 95.5857864376269 1.385786437626908 -0.9999999999999986
    vertex 95.99999999999999 1.0679491924311264 -3.0
    vertex 95.5857864376269 1.385786437626908 -3.0
  endloop
endfacet
facet normal 0.6087614290087253 0.7933533402912316 0.0
  outer loop
    vertex 95.99999999999999 1.0679491924311264 -3.0
    vertex 95.5857864376269 1.385786437626908 -0.9999999999999986
    vertex 95.99999999999999 1.0679491924311264 -0.9999999999999986
  endloop
endfacet
facet normal 0.3826834323650934 0.9238795325112852 0.0
  outer loop
    vertex 95.99999999999999 1.0679491924311264 -0.9999999999999986
    vertex 96.48236190979493 0.8681483474218673 -3.0
    vertex 95.99999999999999 1.0679491924311264 -3.0
  endloop
endfacet
facet normal 0.3826834323650934 0.9238795325112852 0.0
  outer loop
    vertex 96.48236190979493 0.8681483474218673 -3.0
    vertex 95.99999999999999 1.0679491924311264 -0.9999999999999986
    vertex 96.48236190979493 0.8681483474218673 -0.9999999999999986
  endloop
endfacet
facet normal -1.0 0.0 0.0
  outer loop
    vertex 112.0 58.300000000000004 17.999999999999996
    vertex 112.0 56.30000000000001 -0.9999999999999953
    vertex 112.0 56.30000000000001 17.999999999999996
  endloop
endfacet
facet normal -1.0 0.0 0.0
  outer loop
    vertex 112.0 56.30000000000001 -0.9999999999999953
    vertex 112.0 58.300000000000004 17.999999999999996
    vertex 112.0 60.2 -0.9999999999999953
  endloop
endfacet
facet normal 8.550512920616366e-33 -1.0 -3.164655741700897e-16
  outer loop
    vertex 122.5 -1.7000000000000004 24.000000000000007
    vertex 121.0 -1.7000000000000004 14.000000000000002
    vertex 122.49999999999997 -1.7000000000000004 14.000000000000002
  endloop
endfacet
facet normal 8.550512920616366e-33 -1.0 -3.164655741700897e-16
  outer loop
    vertex 121.0 -1.7000000000000004 14.000000000000002
    vertex 122.5 -1.7000000000000004 24.000000000000007
    vertex 88.99999999999999 -1.7000000000000004 14.000000000000002
  endloop
endfacet
facet normal 8.550512920616366e-33 -1.0 -3.164655741700897e-16
  outer loop
    vertex 88.99999999999999 -1.7000000000000004 14.000000000000002
    vertex 122.5 -1.7000000000000004 24.000000000000007
    vertex 87.5 -1.7000000000000004 14.000000000000002
  endloop
endfacet
facet normal 8.550512920616366e-33 -1.0 -3.164655741700897e-16
  outer loop
    vertex 87.5 -1.7000000000000004 14.000000000000002
    vertex 122.5 -1.7000000000000004 24.000000000000007
    vertex 87.5 -1.7000000000000004 24.000000000000007
  endloop
endfacet
facet normal 8.550512920616366e-33 -1.0 -3.164655741700897e-16
  outer loop
    vertex 121.0 -1.7000000000000004 14.000000000000002
    vertex 88.99999999999999 -1.6999999999999944 6.999999999999998
    vertex 121.0 -1.6999999999999944 6.999999999999998
  endloop
endfacet
facet normal 8.550512920616366e-33 -1.0 -3.164655741700897e-16
  outer loop
    vertex 88.99999999999999 -1.6999999999999944 6.999999999999998
    vertex 121.0 -1.7000000000000004 14.000000000000002
    vertex 88.99999999999999 -1.7000000000000004 14.000000000000002
  endloop
endfacet
facet normal 0.0 -1.0 0.0
  outer loop
    vertex 121.0 56.30000000000001 17.999999999999996
    vertex 112.0 56.30000000000001 -0.9999999999999953
    vertex 121.0 56.30000000000001 -0.9999999999999964
  endloop
endfacet
facet normal 0.0 -1.0 0.0
  outer loop
    vertex 112.0 56.30000000000001 -0.9999999999999953
    vertex 121.0 56.30000000000001 17.999999999999996
    vertex 112.0 56.30000000000001 17.999999999999996
  endloop
endfacet
facet normal -0.0 -0.0 1.0
  outer loop
    vertex 122.49999999999997 -13.700000000000001 14.000000000000002
    vertex 121.0 -1.7000000000000004 14.000000000000002
    vertex 121.0 -13.700000000000001 14.000000000000002
  endloop
endfacet
facet normal -0.0 -0.0 1.0
  outer loop
    vertex 121.0 -1.7000000000000004 14.000000000000002
    vertex 122.49999999999997 -13.700000000000001 14.000000000000002
    vertex 122.49999999999997 -1.7000000000000004 14.000000000000002
  endloop
endfacet
facet normal -3.9538665979313524e-32 -7.049916206369797e-16 -1.0
  outer loop
    vertex 89.0 2.2999999999999767 6.999999999999996
    vertex 121.0 -1.6999999999999944 6.999999999999998
    vertex 88.99999999999999 -1.6999999999999944 6.999999999999998
  endloop
endfacet
facet normal -3.9538665979313524e-32 -7.049916206369797e-16 -1.0
  outer loop
    vertex 121.0 -1.6999999999999944 6.999999999999998
    vertex 89.0 2.2999999999999767 6.999999999999996
    vertex 121.0 2.299999999999973 6.999999999999996
  endloop
endfacet
facet normal -4.966217045902506e-33 1.4099832412739584e-15 1.0
  outer loop
    vertex 121.0 0.29999999999999943 18.0
    vertex 89.0 2.2999999999999994 18.0
    vertex 89.0 0.2999999999999995 18.0
  endloop
endfacet
facet normal -4.966217045902506e-33 1.4099832412739584e-15 1.0
  outer loop
    vertex 89.0 2.2999999999999994 18.0
    vertex 121.0 0.29999999999999943 18.0
    vertex 121.0 2.2999999999999994 18.0
  endloop
endfacet
facet normal -0.0 0.9823385664224746 -0.18711210788999544
  outer loop
    vertex 112.0 65.30000000000001 17.999999999999996
    vertex 122.5 61.3 -2.999999999999999
    vertex 112.0 61.3 -2.9999999999999996
  endloop
endfacet
facet normal 5.68541629545947e-17 1.0 -2.211110082906873e-15
  outer loop
    vertex 89.0 2.2999999999999994 18.0
    vertex 121.0 2.299999999999973 6.999999999999996
    vertex 89.0 2.2999999999999767 6.999999999999996
  endloop
endfacet
facet normal 5.68541629545947e-17 1.0 -2.211110082906873e-15
  outer loop
    vertex 121.0 2.299999999999973 6.999999999999996
    vertex 89.0 2.2999999999999994 18.0
    vertex 121.0 2.2999999999999994 18.0
  endloop
endfacet
facet normal 0.0 -1.0 0.0
  outer loop
    vertex 121.0 58.300000000000004 24.0
    vertex 112.0 58.300000000000004 17.999999999999996
    vertex 121.0 58.300000000000004 17.999999999999996
  endloop
endfacet
facet normal 0.0 -1.0 0.0
  outer loop
    vertex 112.0 58.300000000000004 17.999999999999996
    vertex 121.0 58.300000000000004 24.0
    vertex 112.0 58.300000000000004 24.000000000000007
  endloop
endfacet
facet normal -0.0 0.9823385664224746 -0.18711210788999544
  outer loop
    vertex 98.0 65.30000000000001 17.999999999999996
    vertex 98.0 61.3 -2.9999999999999996
    vertex 87.5 61.3 -2.999999999999999
  endloop
endfacet
facet normal -1.0 0.0 0.0
  outer loop
    vertex 87.5 -1.7000000000000004 14.000000000000002
    vertex 87.5 -13.700000000000001 -3.0
    vertex 87.5 -13.700000000000001 14.000000000000002
  endloop
endfacet
facet normal -1.0 0.0 0.0
  outer loop
    vertex 87.5 -13.700000000000001 -3.0
    vertex 87.5 -1.7000000000000004 14.000000000000002
    vertex 87.5 -1.7000000000000004 -2.999999999999999
  endloop
endfacet
facet normal -0.0 -0.0 1.0
  outer loop
    vertex 121.0 56.30000000000001 17.999999999999996
    vertex 112.0 58.300000000000004 17.999999999999996
    vertex 112.0 56.30000000000001 17.999999999999996
  endloop
endfacet
facet normal -0.0 -0.0 1.0
  outer loop
    vertex 112.0 58.300000000000004 17.999999999999996
    vertex 121.0 56.30000000000001 17.999999999999996
    vertex 121.0 58.300000000000004 17.999999999999996
  endloop
endfacet
facet normal 0.35599532759198804 0.934487734928968 -0.0
  outer loop
    vertex 122.5 61.3 24.000000000000007
    vertex 122.5 61.3 -2.999999999999999
    vertex 112.0 65.30000000000001 17.999999999999996
  endloop
endfacet
facet normal 0.0 -1.0 0.0
  outer loop
    vertex 122.49999999999997 -13.700000000000001 -3.0
    vertex 121.0 -13.700000000000001 -0.9999999999999994
    vertex 87.5 -13.700000000000001 -3.0
  endloop
endfacet
facet normal 0.0 -1.0 0.0
  outer loop
    vertex 121.0 -13.700000000000001 -0.9999999999999994
    vertex 122.49999999999997 -13.700000000000001 -3.0
    vertex 122.49999999999997 -13.700000000000001 14.000000000000002
  endloop
endfacet
facet normal 0.0 -1.0 0.0
  outer loop
    vertex 121.0 -13.700000000000001 -0.9999999999999994
    vertex 122.49999999999997 -13.700000000000001 14.000000000000002
    vertex 121.0 -13.700000000000001 14.000000000000002
  endloop
endfacet
facet normal 0.0 -1.0 0.0
  outer loop
    vertex 87.5 -13.700000000000001 -3.0
    vertex 88.99999999999999 -13.700000000000001 -0.9999999999999992
    vertex 87.5 -13.700000000000001 14.000000000000002
  endloop
endfacet
facet normal 0.0 -1.0 0.0
  outer loop
    vertex 88.99999999999999 -13.700000000000001 -0.9999999999999992
    vertex 87.5 -13.700000000000001 -3.0
    vertex 121.0 -13.700000000000001 -0.9999999999999994
  endloop
endfacet
facet normal 0.0 -1.0 0.0
  outer loop
    vertex 87.5 -13.700000000000001 14.000000000000002
    vertex 88.99999999999999 -13.700000000000001 -0.9999999999999992
    vertex 88.99999999999999 -13.700000000000001 14.000000000000002
  endloop
endfacet
facet normal 1.0 -9.399888275159659e-16 6.635215253053876e-16
  outer loop
    vertex 122.5 -1.7000000000000004 -2.999999999999999
    vertex 122.49999999999997 -13.700000000000001 14.000000000000002
    vertex 122.49999999999997 -13.700000000000001 -3.0
  endloop
endfacet
facet normal 1.0 -9.399888275159659e-16 6.635215253053876e-16
  outer loop
    vertex 122.49999999999997 -13.700000000000001 14.000000000000002
    vertex 122.5 -1.7000000000000004 -2.999999999999999
    vertex 122.49999999999997 -1.7000000000000004 14.000000000000002
  endloop
endfacet
facet normal 5.676293847341571e-17 0.8320502943378438 0.5547001962252289
  outer loop
    vertex 122.5 61.3 24.000000000000007
    vertex 112.0 65.30000000000001 17.999999999999996
    vertex 112.0 61.3 24.000000000000007
  endloop
endfacet
facet normal 1.7094779039935333e-17 0.9823385664224749 -0.1871121078899954
  outer loop
    vertex 98.0 65.30000000000001 17.999999999999996
    vertex 112.0 61.3 -2.9999999999999996
    vertex 98.0 61.3 -2.9999999999999996
  endloop
endfacet
facet normal 1.7094779039935333e-17 0.9823385664224749 -0.1871121078899954
  outer loop
    vertex 112.0 61.3 -2.9999999999999996
    vertex 98.0 65.30000000000001 17.999999999999996
    vertex 112.0 65.30000000000001 17.999999999999996
  endloop
endfacet
facet normal 1.0 -0.0 -0.0
  outer loop
    vertex 98.0 60.2 -0.9999999999999959
    vertex 98.0 56.30000000000001 17.999999999999996
    vertex 98.0 56.30000000000001 -0.9999999999999959
  endloop
endfacet
facet normal 1.0 -0.0 -0.0
  outer loop
    vertex 98.0 56.30000000000001 17.999999999999996
    vertex 98.0 60.2 -0.9999999999999959
    vertex 98.0 58.300000000000004 17.999999999999996
  endloop
endfacet
facet normal -1.0 0.0 0.0
  outer loop
    vertex 112.0 61.3 24.000000000000007
    vertex 112.0 58.300000000000004 17.999999999999996
    vertex 112.0 58.300000000000004 24.000000000000007
  endloop
endfacet
facet normal -1.0 0.0 0.0
  outer loop
    vertex 112.0 58.300000000000004 17.999999999999996
    vertex 112.0 61.3 24.000000000000007
    vertex 112.0 65.30000000000001 17.999999999999996
  endloop
endfacet
facet normal -4.520556956756167e-18 -4.258925539496319e-17 1.0
  outer loop
    vertex 88.99999999999999 -13.700000000000001 -0.9999999999999992
    vertex 94.99999999999999 2.8000000000000003 -0.9999999999999986
    vertex 89.0 56.30000000000001 -0.9999999999999962
  endloop
endfacet
facet normal -4.520556956756167e-18 -4.258925539496319e-17 1.0
  outer loop
    vertex 94.99999999999999 2.8000000000000003 -0.9999999999999986
    vertex 88.99999999999999 -13.700000000000001 -0.9999999999999992
    vertex 95.06814834742185 2.2823619097949592 -0.9999999999999986
  endloop
endfacet
facet normal -4.520556956756167e-18 -4.258925539496319e-17 1.0
  outer loop
    vertex 95.06814834742185 2.2823619097949592 -0.9999999999999986
    vertex 88.99999999999999 -13.700000000000001 -0.9999999999999992
    vertex 95.2679491924311 1.8000000000000016 -0.9999999999999986
  endloop
endfacet
facet normal -4.520556956756167e-18 -4.258925539496319e-17 1.0
  outer loop
    vertex 95.2679491924311 1.8000000000000016 -0.9999999999999986
    vertex 88.99999999999999 -13.700000000000001 -0.9999999999999992
    vertex 95.5857864376269 1.385786437626908 -0.9999999999999986
  endloop
endfacet
facet normal -4.520556956756167e-18 -4.258925539496319e-17 1.0
  outer loop
    vertex 95.5857864376269 1.385786437626908 -0.9999999999999986
    vertex 88.99999999999999 -13.700000000000001 -0.9999999999999992
    vertex 95.99999999999999 1.0679491924311264 -0.9999999999999986
  endloop
endfacet
facet normal -4.520556956756167e-18 -4.258925539496319e-17 1.0
  outer loop
    vertex 95.99999999999999 1.0679491924311264 -0.9999999999999986
    vertex 88.99999999999999 -13.700000000000001 -0.9999999999999992
    vertex 121.0 -13.700000000000001 -0.9999999999999994
  endloop
endfacet
facet normal -4.520556956756167e-18 -4.258925539496319e-17 1.0
  outer loop
    vertex 89.0 56.30000000000001 -0.9999999999999962
    vertex 94.99999999999999 2.8000000000000003 -0.9999999999999986
    vertex 94.50000000000001 15.3 -0.9999999999999957
  endloop
endfacet
facet normal -4.520556956756167e-18 -4.258925539496319e-17 1.0
  outer loop
    vertex 95.99999999999999 1.0679491924311264 -0.9999999999999986
    vertex 121.0 -13.700000000000001 -0.9999999999999994
    vertex 96.48236190979493 0.8681483474218673 -0.9999999999999986
  endloop
endfacet
facet normal -4.520556956756167e-18 -4.258925539496319e-17 1.0
  outer loop
    vertex 96.48236190979493 0.8681483474218673 -0.9999999999999986
    vertex 121.0 -13.700000000000001 -0.9999999999999994
    vertex 96.99999999999999 0.8000000000000042 -0.9999999999999986
  endloop
endfacet
facet normal -4.520556956756167e-18 -4.258925539496319e-17 1.0
  outer loop
    vertex 96.99999999999999 0.8000000000000042 -0.9999999999999986
    vertex 121.0 -13.700000000000001 -0.9999999999999994
    vertex 97.51763809020503 0.8681483474218676 -0.9999999999999986
  endloop
endfacet
facet normal -4.520556956756167e-18 -4.258925539496319e-17 1.0
  outer loop
    vertex 97.51763809020503 0.8681483474218676 -0.9999999999999986
    vertex 121.0 -13.700000000000001 -0.9999999999999994
    vertex 97.99999999999997 1.0679491924311264 -0.9999999999999986
  endloop
endfacet
facet normal -4.520556956756167e-18 -4.258925539496319e-17 1.0
  outer loop
    vertex 97.99999999999997 1.0679491924311264 -0.9999999999999986
    vertex 121.0 -13.700000000000001 -0.9999999999999994
    vertex 98.41421356237306 1.385786437626908 -0.9999999999999986
  endloop
endfacet
facet normal -4.520556956756167e-18 -4.258925539496319e-17 1.0
  outer loop
    vertex 98.41421356237306 1.385786437626908 -0.9999999999999986
    vertex 121.0 -13.700000000000001 -0.9999999999999994
    vertex 98.73205080756885 1.8000000000000023 -0.9999999999999986
  endloop
endfacet
facet normal -4.520556956756167e-18 -4.258925539496319e-17 1.0
  outer loop
    vertex 98.73205080756885 1.8000000000000023 -0.9999999999999986
    vertex 121.0 -13.700000000000001 -0.9999999999999994
    vertex 98.93185165257812 2.28236190979496 -0.9999999999999986
  endloop
endfacet
facet normal -4.520556956756167e-18 -4.258925539496319e-17 1.0
  outer loop
    vertex 98.93185165257812 2.28236190979496 -0.9999999999999986
    vertex 121.0 -13.700000000000001 -0.9999999999999994
    vertex 98.99999999999997 2.8000000000000007 -0.9999999999999986
  endloop
endfacet
facet normal -4.520556956756167e-18 -4.258925539496319e-17 1.0
  outer loop
    vertex 98.99999999999997 2.8000000000000007 -0.9999999999999986
    vertex 121.0 -13.700000000000001 -0.9999999999999994
    vertex 111.26794919243113 1.8000000000000016 -0.9999999999999981
  endloop
endfacet
facet normal -4.520556956756167e-18 -4.258925539496319e-17 1.0
  outer loop
    vertex 98.99999999999997 2.8000000000000007 -0.9999999999999986
    vertex 111.26794919243113 1.8000000000000016 -0.9999999999999981
    vertex 111.06814834742185 2.2823619097949592 -0.9999999999999981
  endloop
endfacet
facet normal -4.520556956756167e-18 -4.258925539496319e-17 1.0
  outer loop
    vertex 98.99999999999997 2.8000000000000007 -0.9999999999999986
    vertex 111.06814834742185 2.2823619097949592 -0.9999999999999981
    vertex 111.0 2.8000000000000003 -0.9999999999999981
  endloop
endfacet
facet normal -4.520556956756167e-18 -4.258925539496319e-17 1.0
  outer loop
    vertex 111.26794919243113 1.8000000000000016 -0.9999999999999981
    vertex 121.0 -13.700000000000001 -0.9999999999999994
    vertex 111.5857864376269 1.385786437626908 -0.9999999999999981
  endloop
endfacet
facet normal -4.520556956756167e-18 -4.258925539496319e-17 1.0
  outer loop
    vertex 111.5857864376269 1.385786437626908 -0.9999999999999981
    vertex 121.0 -13.700000000000001 -0.9999999999999994
    vertex 112.0 1.0679491924311264 -0.9999999999999981
  endloop
endfacet
facet normal -4.520556956756167e-18 -4.258925539496319e-17 1.0
  outer loop
    vertex 112.0 1.0679491924311264 -0.9999999999999981
    vertex 121.0 -13.700000000000001 -0.9999999999999994
    vertex 112.48236190979495 0.8681483474218673 -0.9999999999999981
  endloop
endfacet
facet normal -4.520556956756167e-18 -4.258925539496319e-17 1.0
  outer loop
    vertex 112.48236190979495 0.8681483474218673 -0.9999999999999981
    vertex 121.0 -13.700000000000001 -0.9999999999999994
    vertex 113.0 0.8000000000000042 -0.9999999999999981
  endloop
endfacet
facet normal -4.520556956756167e-18 -4.258925539496319e-17 1.0
  outer loop
    vertex 113.0 0.8000000000000042 -0.9999999999999981
    vertex 121.0 -13.700000000000001 -0.9999999999999994
    vertex 113.51763809020504 0.8681483474218676 -0.9999999999999981
  endloop
endfacet
facet normal -4.520556956756167e-18 -4.258925539496319e-17 1.0
  outer loop
    vertex 113.51763809020504 0.8681483474218676 -0.9999999999999981
    vertex 121.0 -13.700000000000001 -0.9999999999999994
    vertex 114.0 1.0679491924311264 -0.9999999999999981
  endloop
endfacet
facet normal -4.520556956756167e-18 -4.258925539496319e-17 1.0
  outer loop
    vertex 114.0 1.0679491924311264 -0.9999999999999981
    vertex 121.0 -13.700000000000001 -0.9999999999999994
    vertex 114.41421356237309 1.385786437626908 -0.9999999999999981
  endloop
endfacet
facet normal -4.520556956756167e-18 -4.258925539496319e-17 1.0
  outer loop
    vertex 114.41421356237309 1.385786437626908 -0.9999999999999981
    vertex 121.0 -13.700000000000001 -0.9999999999999994
    vertex 114.73205080756887 1.8000000000000023 -0.9999999999999981
  endloop
endfacet
facet normal -4.520556956756167e-18 -4.258925539496319e-17 1.0
  outer loop
    vertex 114.73205080756887 1.8000000000000023 -0.9999999999999981
    vertex 121.0 -13.700000000000001 -0.9999999999999994
    vertex 114.93185165257815 2.28236190979496 -0.9999999999999981
  endloop
endfacet
facet normal -4.520556956756167e-18 -4.258925539496319e-17 1.0
  outer loop
    vertex 114.93185165257815 2.28236190979496 -0.9999999999999981
    vertex 121.0 -13.700000000000001 -0.9999999999999994
    vertex 114.99999999999999 2.8000000000000007 -0.9999999999999981
  endloop
endfacet
facet normal -4.520556956756167e-18 -4.258925539496319e-17 1.0
  outer loop
    vertex 114.99999999999999 2.8000000000000007 -0.9999999999999981
    vertex 121.0 -13.700000000000001 -0.9999999999999994
    vertex 115.49999999999999 15.3 -0.9999999999999957
  endloop
endfacet
facet normal -4.520556956756167e-18 -4.258925539496319e-17 1.0
  outer loop
    vertex 115.49999999999999 15.3 -0.9999999999999957
    vertex 121.0 -13.700000000000001 -0.9999999999999994
    vertex 115.49999999999999 55.3 -0.9999999999999974
  endloop
endfacet
facet normal -4.520556956756167e-18 -4.258925539496319e-17 1.0
  outer loop
    vertex 89.0 56.30000000000001 -0.9999999999999962
    vertex 94.50000000000001 55.3 -0.9999999999999974
    vertex 98.0 56.30000000000001 -0.9999999999999959
  endloop
endfacet
facet normal -4.520556956756167e-18 -4.258925539496319e-17 1.0
  outer loop
    vertex 94.50000000000001 55.3 -0.9999999999999974
    vertex 89.0 56.30000000000001 -0.9999999999999962
    vertex 94.50000000000001 15.3 -0.9999999999999957
  endloop
endfacet
facet normal -4.520556956756167e-18 -4.258925539496319e-17 1.0
  outer loop
    vertex 98.0 56.30000000000001 -0.9999999999999959
    vertex 94.50000000000001 55.3 -0.9999999999999974
    vertex 115.49999999999999 55.3 -0.9999999999999974
  endloop
endfacet
facet normal -4.520556956756167e-18 -4.258925539496319e-17 1.0
  outer loop
    vertex 98.0 56.30000000000001 -0.9999999999999959
    vertex 115.49999999999999 55.3 -0.9999999999999974
    vertex 98.0 60.2 -0.9999999999999959
  endloop
endfacet
facet normal -4.520556956756167e-18 -4.258925539496319e-17 1.0
  outer loop
    vertex 98.0 60.2 -0.9999999999999959
    vertex 115.49999999999999 55.3 -0.9999999999999974
    vertex 112.0 56.30000000000001 -0.9999999999999953
  endloop
endfacet
facet normal -4.520556956756167e-18 -4.258925539496319e-17 1.0
  outer loop
    vertex 112.0 56.30000000000001 -0.9999999999999953
    vertex 115.49999999999999 55.3 -0.9999999999999974
    vertex 121.0 56.30000000000001 -0.9999999999999964
  endloop
endfacet
facet normal -4.520556956756167e-18 -4.258925539496319e-17 1.0
  outer loop
    vertex 121.0 56.30000000000001 -0.9999999999999964
    vertex 115.49999999999999 55.3 -0.9999999999999974
    vertex 121.0 -13.700000000000001 -0.9999999999999994
  endloop
endfacet
facet normal -4.520556956756167e-18 -4.258925539496319e-17 1.0
  outer loop
    vertex 94.50000000000001 15.3 -0.9999999999999957
    vertex 95.99999999999999 4.532050807568874 -0.9999999999999986
    vertex 115.49999999999999 15.3 -0.9999999999999957
  endloop
endfacet
facet normal -4.520556956756167e-18 -4.258925539496319e-17 1.0
  outer loop
    vertex 95.99999999999999 4.532050807568874 -0.9999999999999986
    vertex 94.50000000000001 15.3 -0.9999999999999957
    vertex 95.58578643762688 4.214213562373092 -0.9999999999999986
  endloop
endfacet
facet normal -4.520556956756167e-18 -4.258925539496319e-17 1.0
  outer loop
    vertex 95.58578643762688 4.214213562373092 -0.9999999999999986
    vertex 94.50000000000001 15.3 -0.9999999999999957
    vertex 95.2679491924311 3.799999999999998 -0.9999999999999986
  endloop
endfacet
facet normal -4.520556956756167e-18 -4.258925539496319e-17 1.0
  outer loop
    vertex 95.2679491924311 3.799999999999998 -0.9999999999999986
    vertex 94.50000000000001 15.3 -0.9999999999999957
    vertex 95.06814834742185 3.3176380902050404 -0.9999999999999986
  endloop
endfacet
facet normal -4.520556956756167e-18 -4.258925539496319e-17 1.0
  outer loop
    vertex 95.06814834742185 3.3176380902050404 -0.9999999999999986
    vertex 94.50000000000001 15.3 -0.9999999999999957
    vertex 94.99999999999999 2.8000000000000003 -0.9999999999999986
  endloop
endfacet
facet normal -4.520556956756167e-18 -4.258925539496319e-17 1.0
  outer loop
    vertex 115.49999999999999 15.3 -0.9999999999999957
    vertex 95.99999999999999 4.532050807568874 -0.9999999999999986
    vertex 96.48236190979493 4.731851652578134 -0.9999999999999986
  endloop
endfacet
facet normal -4.520556956756167e-18 -4.258925539496319e-17 1.0
  outer loop
    vertex 115.49999999999999 15.3 -0.9999999999999957
    vertex 96.48236190979493 4.731851652578134 -0.9999999999999986
    vertex 96.99999999999999 4.799999999999997 -0.9999999999999986
  endloop
endfacet
facet normal -4.520556956756167e-18 -4.258925539496319e-17 1.0
  outer loop
    vertex 115.49999999999999 15.3 -0.9999999999999957
    vertex 96.99999999999999 4.799999999999997 -0.9999999999999986
    vertex 97.51763809020501 4.731851652578134 -0.9999999999999986
  endloop
endfacet
facet normal -4.520556956756167e-18 -4.258925539496319e-17 1.0
  outer loop
    vertex 115.49999999999999 15.3 -0.9999999999999957
    vertex 97.51763809020501 4.731851652578134 -0.9999999999999986
    vertex 97.99999999999997 4.532050807568876 -0.9999999999999986
  endloop
endfacet
facet normal -4.520556956756167e-18 -4.258925539496319e-17 1.0
  outer loop
    vertex 115.49999999999999 15.3 -0.9999999999999957
    vertex 97.99999999999997 4.532050807568876 -0.9999999999999986
    vertex 98.41421356237306 4.214213562373094 -0.9999999999999986
  endloop
endfacet
facet normal -4.520556956756167e-18 -4.258925539496319e-17 1.0
  outer loop
    vertex 115.49999999999999 15.3 -0.9999999999999957
    vertex 98.41421356237306 4.214213562373094 -0.9999999999999986
    vertex 98.73205080756885 3.7999999999999994 -0.9999999999999986
  endloop
endfacet
facet normal -4.520556956756167e-18 -4.258925539496319e-17 1.0
  outer loop
    vertex 115.49999999999999 15.3 -0.9999999999999957
    vertex 98.73205080756885 3.7999999999999994 -0.9999999999999986
    vertex 98.93185165257812 3.3176380902050426 -0.9999999999999986
  endloop
endfacet
facet normal -4.520556956756167e-18 -4.258925539496319e-17 1.0
  outer loop
    vertex 115.49999999999999 15.3 -0.9999999999999957
    vertex 98.93185165257812 3.3176380902050426 -0.9999999999999986
    vertex 98.99999999999997 2.8000000000000007 -0.9999999999999986
  endloop
endfacet
facet normal -4.520556956756167e-18 -4.258925539496319e-17 1.0
  outer loop
    vertex 115.49999999999999 15.3 -0.9999999999999957
    vertex 98.99999999999997 2.8000000000000007 -0.9999999999999986
    vertex 111.06814834742185 3.3176380902050404 -0.9999999999999981
  endloop
endfacet
facet normal -4.520556956756167e-18 -4.258925539496319e-17 1.0
  outer loop
    vertex 111.06814834742185 3.3176380902050404 -0.9999999999999981
    vertex 98.99999999999997 2.8000000000000007 -0.9999999999999986
    vertex 111.0 2.8000000000000003 -0.9999999999999981
  endloop
endfacet
facet normal -4.520556956756167e-18 -4.258925539496319e-17 1.0
  outer loop
    vertex 115.49999999999999 15.3 -0.9999999999999957
    vertex 111.06814834742185 3.3176380902050404 -0.9999999999999981
    vertex 111.26794919243113 3.799999999999998 -0.9999999999999981
  endloop
endfacet
facet normal -4.520556956756167e-18 -4.258925539496319e-17 1.0
  outer loop
    vertex 115.49999999999999 15.3 -0.9999999999999957
    vertex 111.26794919243113 3.799999999999998 -0.9999999999999981
    vertex 111.5857864376269 4.214213562373092 -0.9999999999999981
  endloop
endfacet
facet normal -4.520556956756167e-18 -4.258925539496319e-17 1.0
  outer loop
    vertex 115.49999999999999 15.3 -0.9999999999999957
    vertex 111.5857864376269 4.214213562373092 -0.9999999999999981
    vertex 112.0 4.532050807568874 -0.9999999999999981
  endloop
endfacet
facet normal -4.520556956756167e-18 -4.258925539496319e-17 1.0
  outer loop
    vertex 115.49999999999999 15.3 -0.9999999999999957
    vertex 112.0 4.532050807568874 -0.9999999999999981
    vertex 112.48236190979495 4.731851652578134 -0.9999999999999981
  endloop
endfacet
facet normal -4.520556956756167e-18 -4.258925539496319e-17 1.0
  outer loop
    vertex 115.49999999999999 15.3 -0.9999999999999957
    vertex 112.48236190979495 4.731851652578134 -0.9999999999999981
    vertex 113.0 4.799999999999997 -0.9999999999999981
  endloop
endfacet
facet normal -4.520556956756167e-18 -4.258925539496319e-17 1.0
  outer loop
    vertex 115.49999999999999 15.3 -0.9999999999999957
    vertex 113.0 4.799999999999997 -0.9999999999999981
    vertex 113.51763809020504 4.731851652578134 -0.9999999999999981
  endloop
endfacet
facet normal -4.520556956756167e-18 -4.258925539496319e-17 1.0
  outer loop
    vertex 115.49999999999999 15.3 -0.9999999999999957
    vertex 113.51763809020504 4.731851652578134 -0.9999999999999981
    vertex 114.0 4.532050807568876 -0.9999999999999981
  endloop
endfacet
facet normal -4.520556956756167e-18 -4.258925539496319e-17 1.0
  outer loop
    vertex 115.49999999999999 15.3 -0.9999999999999957
    vertex 114.0 4.532050807568876 -0.9999999999999981
    vertex 114.41421356237309 4.214213562373094 -0.9999999999999981
  endloop
endfacet
facet normal -4.520556956756167e-18 -4.258925539496319e-17 1.0
  outer loop
    vertex 115.49999999999999 15.3 -0.9999999999999957
    vertex 114.41421356237309 4.214213562373094 -0.9999999999999981
    vertex 114.73205080756887 3.7999999999999994 -0.9999999999999981
  endloop
endfacet
facet normal -4.520556956756167e-18 -4.258925539496319e-17 1.0
  outer loop
    vertex 115.49999999999999 15.3 -0.9999999999999957
    vertex 114.73205080756887 3.7999999999999994 -0.9999999999999981
    vertex 114.93185165257812 3.3176380902050426 -0.9999999999999981
  endloop
endfacet
facet normal -4.520556956756167e-18 -4.258925539496319e-17 1.0
  outer loop
    vertex 115.49999999999999 15.3 -0.9999999999999957
    vertex 114.93185165257812 3.3176380902050426 -0.9999999999999981
    vertex 114.99999999999999 2.8000000000000007 -0.9999999999999981
  endloop
endfacet
facet normal -4.520556956756167e-18 -4.258925539496319e-17 1.0
  outer loop
    vertex 112.0 60.2 -0.9999999999999953
    vertex 98.0 60.2 -0.9999999999999959
    vertex 112.0 56.30000000000001 -0.9999999999999953
  endloop
endfacet
facet normal 3.1219616160378664e-16 0.8320502943378437 0.554700196225229
  outer loop
    vertex 87.5 61.3 24.000000000000007
    vertex 98.0 61.3 24.0
    vertex 98.0 65.30000000000001 17.999999999999996
  endloop
endfacet
facet normal -2.014261773248499e-16 1.8402529013520877e-32 1.0
  outer loop
    vertex 112.0 58.300000000000004 17.999999999999996
    vertex 98.0 65.30000000000001 17.999999999999996
    vertex 98.0 58.300000000000004 17.999999999999996
  endloop
endfacet
facet normal -2.014261773248499e-16 1.8402529013520877e-32 1.0
  outer loop
    vertex 98.0 65.30000000000001 17.999999999999996
    vertex 112.0 58.300000000000004 17.999999999999996
    vertex 112.0 65.30000000000001 17.999999999999996
  endloop
endfacet
facet normal 9.090775094659763e-18 -0.9950371902099893 -0.09950371902099879
  outer loop
    vertex 112.0 60.2 -0.9999999999999953
    vertex 98.0 58.300000000000004 17.999999999999996
    vertex 98.0 60.2 -0.9999999999999959
  endloop
endfacet
facet normal 9.090775094659763e-18 -0.9950371902099893 -0.09950371902099879
  outer loop
    vertex 98.0 58.300000000000004 17.999999999999996
    vertex 112.0 60.2 -0.9999999999999953
    vertex 112.0 58.300000000000004 17.999999999999996
  endloop
endfacet
facet normal 0.9238795325112898 0.3826834323650826 0.0
  outer loop
    vertex 95.06814834742185 2.2823619097949592 -3.0
    vertex 95.2679491924311 1.8000000000000016 -0.9999999999999986
    vertex 95.2679491924311 1.8000000000000016 -3.0
  endloop
endfacet
facet normal 0.9238795325112898 0.3826834323650826 0.0
  outer loop
    vertex 95.2679491924311 1.8000000000000016 -0.9999999999999986
    vertex 95.06814834742185 2.2823619097949592 -3.0
    vertex 95.06814834742185 2.2823619097949592 -0.9999999999999986
  endloop
endfacet
facet normal -0.7933533402912264 -0.6087614290087322 -0.0
  outer loop
    vertex 98.41421356237306 4.214213562373094 -0.9999999999999986
    vertex 98.73205080756885 3.7999999999999994 -3.0
    vertex 98.73205080756885 3.7999999999999994 -0.9999999999999986
  endloop
endfacet
facet normal -0.7933533402912264 -0.6087614290087322 -0.0
  outer loop
    vertex 98.73205080756885 3.7999999999999994 -3.0
    vertex 98.41421356237306 4.214213562373094 -0.9999999999999986
    vertex 98.41421356237306 4.214213562373094 -3.0
  endloop
endfacet
facet normal -0.13052619222005077 0.9914448613738106 -0.0
  outer loop
    vertex 96.99999999999999 0.8000000000000042 -0.9999999999999986
    vertex 97.51763809020503 0.8681483474218676 -3.0
    vertex 96.99999999999999 0.8000000000000042 -3.0
  endloop
endfacet
facet normal -0.13052619222005077 0.9914448613738106 -0.0
  outer loop
    vertex 97.51763809020503 0.8681483474218676 -3.0
    vertex 96.99999999999999 0.8000000000000042 -0.9999999999999986
    vertex 97.51763809020503 0.8681483474218676 -0.9999999999999986
  endloop
endfacet
facet normal -0.9914448613738105 0.130526192220052 -0.0
  outer loop
    vertex 98.99999999999997 2.8000000000000007 -0.9999999999999986
    vertex 98.93185165257812 2.28236190979496 -3.0
    vertex 98.93185165257812 2.28236190979496 -0.9999999999999986
  endloop
endfacet
facet normal -0.9914448613738105 0.130526192220052 -0.0
  outer loop
    vertex 98.93185165257812 2.28236190979496 -3.0
    vertex 98.99999999999997 2.8000000000000007 -0.9999999999999986
    vertex 98.99999999999997 2.8000000000000007 -3.0
  endloop
endfacet
facet normal -0.7933533402912264 0.608761429008732 -0.0
  outer loop
    vertex 98.73205080756885 1.8000000000000023 -0.9999999999999986
    vertex 98.41421356237306 1.385786437626908 -3.0
    vertex 98.41421356237306 1.385786437626908 -0.9999999999999986
  endloop
endfacet
facet normal -0.7933533402912264 0.608761429008732 -0.0
  outer loop
    vertex 98.41421356237306 1.385786437626908 -3.0
    vertex 98.73205080756885 1.8000000000000023 -0.9999999999999986
    vertex 98.73205080756885 1.8000000000000023 -3.0
  endloop
endfacet
facet normal -0.382683432365084 -0.9238795325112892 -0.0
  outer loop
    vertex 97.99999999999997 4.532050807568876 -0.9999999999999986
    vertex 97.51763809020501 4.731851652578134 -3.0
    vertex 97.99999999999997 4.532050807568876 -3.0
  endloop
endfacet
facet normal -0.382683432365084 -0.9238795325112892 -0.0
  outer loop
    vertex 97.51763809020501 4.731851652578134 -3.0
    vertex 97.99999999999997 4.532050807568876 -0.9999999999999986
    vertex 97.51763809020501 4.731851652578134 -0.9999999999999986
  endloop
endfacet
facet normal 0.13052619222005077 -0.9914448613738106 -0.0
  outer loop
    vertex 96.99999999999999 4.799999999999997 -0.9999999999999986
    vertex 96.48236190979493 4.731851652578134 -3.0
    vertex 96.99999999999999 4.799999999999997 -3.0
  endloop
endfacet
facet normal 0.13052619222005077 -0.9914448613738106 -0.0
  outer loop
    vertex 96.48236190979493 4.731851652578134 -3.0
    vertex 96.99999999999999 4.799999999999997 -0.9999999999999986
    vertex 96.48236190979493 4.731851652578134 -0.9999999999999986
  endloop
endfacet
facet normal 0.6087614290087153 -0.7933533402912394 -0.0
  outer loop
    vertex 95.99999999999999 4.532050807568874 -0.9999999999999986
    vertex 95.58578643762688 4.214213562373092 -3.0
    vertex 95.99999999999999 4.532050807568874 -3.0
  endloop
endfacet
facet normal 0.6087614290087153 -0.7933533402912394 -0.0
  outer loop
    vertex 95.58578643762688 4.214213562373092 -3.0
    vertex 95.99999999999999 4.532050807568874 -0.9999999999999986
    vertex 95.58578643762688 4.214213562373092 -0.9999999999999986
  endloop
endfacet
facet normal 0.7933533402912368 -0.6087614290087187 -0.0
  outer loop
    vertex 95.58578643762688 4.214213562373092 -3.0
    vertex 95.2679491924311 3.799999999999998 -0.9999999999999986
    vertex 95.2679491924311 3.799999999999998 -3.0
  endloop
endfacet
facet normal 0.7933533402912368 -0.6087614290087187 -0.0
  outer loop
    vertex 95.2679491924311 3.799999999999998 -0.9999999999999986
    vertex 95.58578643762688 4.214213562373092 -3.0
    vertex 95.58578643762688 4.214213562373092 -0.9999999999999986
  endloop
endfacet
facet normal -0.6087614290087255 0.7933533402912315 -0.0
  outer loop
    vertex 97.99999999999997 1.0679491924311264 -0.9999999999999986
    vertex 98.41421356237306 1.385786437626908 -3.0
    vertex 97.99999999999997 1.0679491924311264 -3.0
  endloop
endfacet
facet normal -0.6087614290087255 0.7933533402912315 -0.0
  outer loop
    vertex 98.41421356237306 1.385786437626908 -3.0
    vertex 97.99999999999997 1.0679491924311264 -0.9999999999999986
    vertex 98.41421356237306 1.385786437626908 -0.9999999999999986
  endloop
endfacet
facet normal -0.7933533402912474 0.6087614290087048 -0.0
  outer loop
    vertex 114.73205080756887 1.8000000000000023 -0.9999999999999981
    vertex 114.41421356237309 1.385786437626908 -3.0
    vertex 114.41421356237309 1.385786437626908 -0.9999999999999981
  endloop
endfacet
facet normal -0.7933533402912474 0.6087614290087048 -0.0
  outer loop
    vertex 114.41421356237309 1.385786437626908 -3.0
    vertex 114.73205080756887 1.8000000000000023 -0.9999999999999981
    vertex 114.73205080756887 1.8000000000000023 -3.0
  endloop
endfacet
facet normal -0.9238795325112898 0.3826834323650826 -0.0
  outer loop
    vertex 98.93185165257812 2.28236190979496 -0.9999999999999986
    vertex 98.73205080756885 1.8000000000000023 -3.0
    vertex 98.73205080756885 1.8000000000000023 -0.9999999999999986
  endloop
endfacet
facet normal -0.9238795325112898 0.3826834323650826 -0.0
  outer loop
    vertex 98.73205080756885 1.8000000000000023 -3.0
    vertex 98.93185165257812 2.28236190979496 -0.9999999999999986
    vertex 98.93185165257812 2.28236190979496 -3.0
  endloop
endfacet
facet normal 0.9914448613738104 0.13052619222005188 0.0
  outer loop
    vertex 94.99999999999999 2.8000000000000003 -3.0
    vertex 95.06814834742185 2.2823619097949592 -0.9999999999999986
    vertex 95.06814834742185 2.2823619097949592 -3.0
  endloop
endfacet
facet normal 0.9914448613738104 0.13052619222005188 0.0
  outer loop
    vertex 95.06814834742185 2.2823619097949592 -0.9999999999999986
    vertex 94.99999999999999 2.8000000000000003 -3.0
    vertex 94.99999999999999 2.8000000000000003 -0.9999999999999986
  endloop
endfacet
facet normal -0.9914448613738104 -0.13052619222005163 -0.0
  outer loop
    vertex 98.93185165257812 3.3176380902050426 -0.9999999999999986
    vertex 98.99999999999997 2.8000000000000007 -3.0
    vertex 98.99999999999997 2.8000000000000007 -0.9999999999999986
  endloop
endfacet
facet normal -0.9914448613738104 -0.13052619222005163 -0.0
  outer loop
    vertex 98.99999999999997 2.8000000000000007 -3.0
    vertex 98.93185165257812 3.3176380902050426 -0.9999999999999986
    vertex 98.93185165257812 3.3176380902050426 -3.0
  endloop
endfacet
facet normal -0.38268343236509283 0.9238795325112855 -0.0
  outer loop
    vertex 97.51763809020503 0.8681483474218676 -0.9999999999999986
    vertex 97.99999999999997 1.0679491924311264 -3.0
    vertex 97.51763809020503 0.8681483474218676 -3.0
  endloop
endfacet
facet normal -0.38268343236509283 0.9238795325112855 -0.0
  outer loop
    vertex 97.99999999999997 1.0679491924311264 -3.0
    vertex 97.51763809020503 0.8681483474218676 -0.9999999999999986
    vertex 97.99999999999997 1.0679491924311264 -0.9999999999999986
  endloop
endfacet
facet normal 0.9914448613738104 -0.13052619222005205 -0.0
  outer loop
    vertex 95.06814834742185 3.3176380902050404 -3.0
    vertex 94.99999999999999 2.8000000000000003 -0.9999999999999986
    vertex 94.99999999999999 2.8000000000000003 -3.0
  endloop
endfacet
facet normal 0.9914448613738104 -0.13052619222005205 -0.0
  outer loop
    vertex 94.99999999999999 2.8000000000000003 -0.9999999999999986
    vertex 95.06814834742185 3.3176380902050404 -3.0
    vertex 95.06814834742185 3.3176380902050404 -0.9999999999999986
  endloop
endfacet
facet normal -0.9238795325112895 -0.382683432365083 -0.0
  outer loop
    vertex 98.73205080756885 3.7999999999999994 -0.9999999999999986
    vertex 98.93185165257812 3.3176380902050426 -3.0
    vertex 98.93185165257812 3.3176380902050426 -0.9999999999999986
  endloop
endfacet
facet normal -0.9238795325112895 -0.382683432365083 -0.0
  outer loop
    vertex 98.93185165257812 3.3176380902050426 -3.0
    vertex 98.73205080756885 3.7999999999999994 -0.9999999999999986
    vertex 98.73205080756885 3.7999999999999994 -3.0
  endloop
endfacet
facet normal -0.9914448613738132 0.13052619222003073 -0.0
  outer loop
    vertex 114.99999999999999 2.8000000000000007 -0.9999999999999981
    vertex 114.93185165257815 2.28236190979496 -3.0
    vertex 114.93185165257815 2.28236190979496 -0.9999999999999981
  endloop
endfacet
facet normal -0.9914448613738132 0.13052619222003073 -0.0
  outer loop
    vertex 114.93185165257815 2.28236190979496 -3.0
    vertex 114.99999999999999 2.8000000000000007 -0.9999999999999981
    vertex 114.99999999999999 2.8000000000000007 -3.0
  endloop
endfacet
facet normal -0.9914448613738076 -0.13052619222007286 -0.0
  outer loop
    vertex 114.93185165257812 3.3176380902050426 -0.9999999999999981
    vertex 114.99999999999999 2.8000000000000007 -3.0
    vertex 114.99999999999999 2.8000000000000007 -0.9999999999999981
  endloop
endfacet
facet normal -0.9914448613738076 -0.13052619222007286 -0.0
  outer loop
    vertex 114.99999999999999 2.8000000000000007 -3.0
    vertex 114.93185165257812 3.3176380902050426 -0.9999999999999981
    vertex 114.93185165257812 3.3176380902050426 -3.0
  endloop
endfacet
facet normal 0.13052619222005007 0.9914448613738106 0.0
  outer loop
    vertex 96.48236190979493 0.8681483474218673 -0.9999999999999986
    vertex 96.99999999999999 0.8000000000000042 -3.0
    vertex 96.48236190979493 0.8681483474218673 -3.0
  endloop
endfacet
facet normal 0.13052619222005007 0.9914448613738106 0.0
  outer loop
    vertex 96.99999999999999 0.8000000000000042 -3.0
    vertex 96.48236190979493 0.8681483474218673 -0.9999999999999986
    vertex 96.99999999999999 0.8000000000000042 -0.9999999999999986
  endloop
endfacet
facet normal -0.9238795325112895 -0.382683432365083 -0.0
  outer loop
    vertex 114.73205080756887 3.7999999999999994 -0.9999999999999981
    vertex 114.93185165257812 3.3176380902050426 -3.0
    vertex 114.93185165257812 3.3176380902050426 -0.9999999999999981
  endloop
endfacet
facet normal -0.9238795325112895 -0.382683432365083 -0.0
  outer loop
    vertex 114.93185165257812 3.3176380902050426 -3.0
    vertex 114.73205080756887 3.7999999999999994 -0.9999999999999981
    vertex 114.73205080756887 3.7999999999999994 -3.0
  endloop
endfacet
facet normal -0.7933533402912472 -0.6087614290087049 -0.0
  outer loop
    vertex 114.41421356237309 4.214213562373094 -0.9999999999999981
    vertex 114.73205080756887 3.7999999999999994 -3.0
    vertex 114.73205080756887 3.7999999999999994 -0.9999999999999981
  endloop
endfacet
facet normal -0.7933533402912472 -0.6087614290087049 -0.0
  outer loop
    vertex 114.73205080756887 3.7999999999999994 -3.0
    vertex 114.41421356237309 4.214213562373094 -0.9999999999999981
    vertex 114.41421356237309 4.214213562373094 -3.0
  endloop
endfacet
facet normal -0.6087614290087153 -0.7933533402912394 -0.0
  outer loop
    vertex 114.41421356237309 4.214213562373094 -0.9999999999999981
    vertex 114.0 4.532050807568876 -3.0
    vertex 114.41421356237309 4.214213562373094 -3.0
  endloop
endfacet
facet normal -0.6087614290087153 -0.7933533402912394 -0.0
  outer loop
    vertex 114.0 4.532050807568876 -3.0
    vertex 114.41421356237309 4.214213562373094 -0.9999999999999981
    vertex 114.0 4.532050807568876 -0.9999999999999981
  endloop
endfacet
facet normal -0.13052619222005077 -0.9914448613738106 -0.0
  outer loop
    vertex 113.51763809020504 4.731851652578134 -0.9999999999999981
    vertex 113.0 4.799999999999997 -3.0
    vertex 113.51763809020504 4.731851652578134 -3.0
  endloop
endfacet
facet normal -0.13052619222005077 -0.9914448613738106 -0.0
  outer loop
    vertex 113.0 4.799999999999997 -3.0
    vertex 113.51763809020504 4.731851652578134 -0.9999999999999981
    vertex 113.0 4.799999999999997 -0.9999999999999981
  endloop
endfacet
facet normal -0.6087614290087257 -0.7933533402912314 -0.0
  outer loop
    vertex 98.41421356237306 4.214213562373094 -0.9999999999999986
    vertex 97.99999999999997 4.532050807568876 -3.0
    vertex 98.41421356237306 4.214213562373094 -3.0
  endloop
endfacet
facet normal -0.6087614290087257 -0.7933533402912314 -0.0
  outer loop
    vertex 97.99999999999997 4.532050807568876 -3.0
    vertex 98.41421356237306 4.214213562373094 -0.9999999999999986
    vertex 97.99999999999997 4.532050807568876 -0.9999999999999986
  endloop
endfacet
facet normal 0.13052619222005077 -0.9914448613738106 -0.0
  outer loop
    vertex 113.0 4.799999999999997 -0.9999999999999981
    vertex 112.48236190979495 4.731851652578134 -3.0
    vertex 113.0 4.799999999999997 -3.0
  endloop
endfacet
facet normal 0.13052619222005077 -0.9914448613738106 -0.0
  outer loop
    vertex 112.48236190979495 4.731851652578134 -3.0
    vertex 113.0 4.799999999999997 -0.9999999999999981
    vertex 112.48236190979495 4.731851652578134 -0.9999999999999981
  endloop
endfacet
facet normal 0.9238795325112898 -0.3826834323650826 -0.0
  outer loop
    vertex 95.2679491924311 3.799999999999998 -3.0
    vertex 95.06814834742185 3.3176380902050404 -0.9999999999999986
    vertex 95.06814834742185 3.3176380902050404 -3.0
  endloop
endfacet
facet normal 0.9238795325112898 -0.3826834323650826 -0.0
  outer loop
    vertex 95.06814834742185 3.3176380902050404 -0.9999999999999986
    vertex 95.2679491924311 3.799999999999998 -3.0
    vertex 95.2679491924311 3.799999999999998 -0.9999999999999986
  endloop
endfacet
facet normal -0.608761429008715 0.7933533402912395 -0.0
  outer loop
    vertex 114.0 1.0679491924311264 -0.9999999999999981
    vertex 114.41421356237309 1.385786437626908 -3.0
    vertex 114.0 1.0679491924311264 -3.0
  endloop
endfacet
facet normal -0.608761429008715 0.7933533402912395 -0.0
  outer loop
    vertex 114.41421356237309 1.385786437626908 -3.0
    vertex 114.0 1.0679491924311264 -0.9999999999999981
    vertex 114.41421356237309 1.385786437626908 -0.9999999999999981
  endloop
endfacet
facet normal -0.9238795325112744 0.3826834323651194 -0.0
  outer loop
    vertex 114.93185165257815 2.28236190979496 -0.9999999999999981
    vertex 114.73205080756887 1.8000000000000023 -3.0
    vertex 114.73205080756887 1.8000000000000023 -0.9999999999999981
  endloop
endfacet
facet normal -0.9238795325112744 0.3826834323651194 -0.0
  outer loop
    vertex 114.73205080756887 1.8000000000000023 -3.0
    vertex 114.93185165257815 2.28236190979496 -0.9999999999999981
    vertex 114.93185165257815 2.28236190979496 -3.0
  endloop
endfacet
facet normal -0.3826834323650917 -0.9238795325112861 -0.0
  outer loop
    vertex 114.0 4.532050807568876 -0.9999999999999981
    vertex 113.51763809020504 4.731851652578134 -3.0
    vertex 114.0 4.532050807568876 -3.0
  endloop
endfacet
facet normal -0.3826834323650917 -0.9238795325112861 -0.0
  outer loop
    vertex 113.51763809020504 4.731851652578134 -3.0
    vertex 114.0 4.532050807568876 -0.9999999999999981
    vertex 113.51763809020504 4.731851652578134 -0.9999999999999981
  endloop
endfacet
facet normal -0.13052619222005354 -0.9914448613738103 -0.0
  outer loop
    vertex 97.51763809020501 4.731851652578134 -0.9999999999999986
    vertex 96.99999999999999 4.799999999999997 -3.0
    vertex 97.51763809020501 4.731851652578134 -3.0
  endloop
endfacet
facet normal -0.13052619222005354 -0.9914448613738103 -0.0
  outer loop
    vertex 96.99999999999999 4.799999999999997 -3.0
    vertex 97.51763809020501 4.731851652578134 -0.9999999999999986
    vertex 96.99999999999999 4.799999999999997 -0.9999999999999986
  endloop
endfacet
facet normal 0.38268343236509395 -0.923879532511285 -0.0
  outer loop
    vertex 96.48236190979493 4.731851652578134 -0.9999999999999986
    vertex 95.99999999999999 4.532050807568874 -3.0
    vertex 96.48236190979493 4.731851652578134 -3.0
  endloop
endfacet
facet normal 0.38268343236509395 -0.923879532511285 -0.0
  outer loop
    vertex 95.99999999999999 4.532050807568874 -3.0
    vertex 96.48236190979493 4.731851652578134 -0.9999999999999986
    vertex 95.99999999999999 4.532050807568874 -0.9999999999999986
  endloop
endfacet
endsolid nodemcu_max6675
